<svg width="616" height="90" viewBox="0 0 616 90" fill="none" xmlns="http://www.w3.org/2000/svg">
<path fill-rule="evenodd" clip-rule="evenodd" d="M566.861 0.212308C565.981 0.504723 564.921 2.38043 559.127 13.901C553.667 24.7561 552.253 27.2879 551.554 27.4509C551.082 27.5609 544.465 28.6004 536.849 29.7604C521.618 32.0807 521.216 32.2022 521.015 34.5486C520.902 35.8723 521.145 36.1442 531.859 46.6756L542.819 57.4491L540.64 71.5797C539.441 79.3519 538.373 86.1654 538.266 86.7215C538.02 87.999 539.865 90 541.289 90C541.808 90 544.473 88.8404 547.212 87.4235C549.951 86.0062 555.946 82.9127 560.534 80.5487L568.875 76.2502L582.196 83.1253C589.522 86.9061 595.739 90 596.01 90C596.282 90 596.922 89.8105 597.432 89.5785C599.378 88.6953 599.363 88.3402 596.719 72.3052L594.263 57.4126L605.131 46.5574C612.669 39.0292 616 35.4554 616 34.8955C616 33.5677 615.217 32.2634 614.174 31.8535C613.634 31.6417 606.64 30.5399 598.63 29.4053C590.621 28.2703 584.039 27.2994 584.005 27.2476C583.971 27.1958 580.952 21.3628 577.295 14.2855C573.639 7.20825 570.4 1.14177 570.099 0.804223C569.39 0.0123915 568.147 -0.214751 566.861 0.212308ZM574.413 21.9316C577.148 27.2651 579.667 31.9113 580.01 32.2563C580.484 32.7326 583.609 33.3055 592.984 34.6363C599.777 35.6004 605.479 36.5191 605.655 36.6783C605.831 36.8372 602.092 40.8952 597.346 45.6955C592.6 50.4957 588.544 54.8759 588.333 55.4298C588.031 56.2205 588.397 59.0384 590.038 68.5795C591.186 75.2584 592.038 80.8106 591.931 80.9176C591.823 81.0247 586.779 78.5805 580.722 75.4859C574.572 72.344 569.263 69.8592 568.7 69.8592C568.123 69.8592 562.98 72.338 556.639 75.6732C550.559 78.8711 545.508 81.4111 545.415 81.3182C545.322 81.2253 546.115 75.6877 547.178 69.0129C548.241 62.3377 549.004 56.4547 548.875 55.9397C548.734 55.3806 544.936 51.4222 539.453 46.1188C534.401 41.2324 530.401 37.1927 530.564 37.142C530.727 37.0912 536.216 36.2077 542.762 35.1782C549.308 34.1488 555.12 33.0713 555.679 32.7833C556.492 32.3645 557.805 29.9871 562.271 20.8466L567.848 9.43269L568.644 10.8336C569.082 11.6038 571.678 16.598 574.413 21.9316Z" fill="#DEF745"/>
<path fill-rule="evenodd" clip-rule="evenodd" d="M42.2631 0.387906C41.5757 0.695629 40.8083 1.20754 40.5572 1.52598C40.3061 1.84443 38.2017 6.21937 35.8808 11.2481C29.6755 24.6934 29.1025 25.8179 28.2177 26.2869C27.7743 26.522 22.0398 27.5347 15.4751 28.5375C8.91043 29.5398 3.01528 30.5719 2.37488 30.831C0.944189 31.4093 0.000247134 33.1211 0.000247134 35.137C0.000247134 36.7981 -0.228347 36.537 13.2192 50.2162C18.6634 55.7544 19.1539 56.3781 19.1539 57.7628C19.1539 58.5932 18.2004 64.9267 17.0349 71.8372L14.9155 84.4014L15.7041 85.7392C16.6822 87.3978 18.1433 88.1935 19.7826 87.96C20.4721 87.8619 25.9996 85.0462 32.0659 81.7029C39.3859 77.6683 43.516 75.6227 44.3451 75.621C45.1836 75.619 49.2205 77.6266 56.6284 81.7297C69.1411 88.6601 69.9455 88.9108 72.077 86.5472C73.6905 84.7587 73.663 84.1123 71.41 70.7853C69.398 58.884 69.2756 57.604 70.0197 56.2176C70.2857 55.7222 74.455 51.2681 79.2842 46.3194C84.1138 41.3711 88.3247 36.7952 88.6416 36.1517C89.2928 34.8289 89.0513 33.3695 87.9608 32.0354C87.3054 31.2331 85.7523 30.9036 74.2576 29.1253C67.1275 28.0227 60.9275 26.8937 60.4799 26.6169C59.3544 25.9206 59.4639 26.1301 53.545 13.3927C50.632 7.12314 47.8185 1.59322 47.293 1.10441C46.0843 -0.0204668 43.8779 -0.334787 42.2631 0.387906Z" fill="#DEF745"/>
<path fill-rule="evenodd" clip-rule="evenodd" d="M168.263 0.387906C167.576 0.695629 166.808 1.20754 166.557 1.52598C166.306 1.84443 164.202 6.21937 161.881 11.2481C155.675 24.6934 155.103 25.8179 154.218 26.2869C153.774 26.522 148.04 27.5347 141.475 28.5375C134.91 29.5398 129.015 30.5719 128.375 30.831C126.944 31.4093 126 33.1211 126 35.137C126 36.7981 125.772 36.537 139.219 50.2162C144.663 55.7544 145.154 56.3781 145.154 57.7628C145.154 58.5932 144.2 64.9267 143.035 71.8372L140.916 84.4014L141.704 85.7392C142.682 87.3978 144.143 88.1935 145.783 87.96C146.472 87.8619 152 85.0462 158.066 81.7029C165.386 77.6683 169.516 75.6227 170.345 75.621C171.184 75.619 175.22 77.6266 182.628 81.7297C195.141 88.6601 195.946 88.9108 198.077 86.5472C199.69 84.7587 199.663 84.1123 197.41 70.7853C195.398 58.884 195.276 57.604 196.02 56.2176C196.286 55.7222 200.455 51.2681 205.284 46.3194C210.114 41.3711 214.325 36.7952 214.642 36.1517C215.293 34.8289 215.051 33.3695 213.961 32.0354C213.305 31.2331 211.752 30.9036 200.258 29.1253C193.127 28.0227 186.928 26.8937 186.48 26.6169C185.354 25.9206 185.464 26.1301 179.545 13.3927C176.632 7.12314 173.819 1.59322 173.293 1.10441C172.084 -0.0204668 169.878 -0.334787 168.263 0.387906Z" fill="#DEF745"/>
<path fill-rule="evenodd" clip-rule="evenodd" d="M294.263 0.387906C293.576 0.695629 292.808 1.20754 292.557 1.52598C292.306 1.84443 290.202 6.21937 287.881 11.2481C281.675 24.6934 281.103 25.8179 280.218 26.2869C279.774 26.522 274.04 27.5347 267.475 28.5375C260.91 29.5398 255.015 30.5719 254.375 30.831C252.944 31.4093 252 33.1211 252 35.137C252 36.7981 251.772 36.537 265.219 50.2162C270.663 55.7544 271.154 56.3781 271.154 57.7628C271.154 58.5932 270.2 64.9267 269.035 71.8372L266.916 84.4014L267.704 85.7392C268.682 87.3978 270.143 88.1935 271.783 87.96C272.472 87.8619 278 85.0462 284.066 81.7029C291.386 77.6683 295.516 75.6227 296.345 75.621C297.184 75.619 301.22 77.6266 308.628 81.7297C321.141 88.6601 321.946 88.9108 324.077 86.5472C325.69 84.7587 325.663 84.1123 323.41 70.7853C321.398 58.884 321.276 57.604 322.02 56.2176C322.286 55.7222 326.455 51.2681 331.284 46.3194C336.114 41.3711 340.325 36.7952 340.642 36.1517C341.293 34.8289 341.051 33.3695 339.961 32.0354C339.305 31.2331 337.752 30.9036 326.258 29.1253C319.127 28.0227 312.928 26.8937 312.48 26.6169C311.354 25.9206 311.464 26.1301 305.545 13.3927C302.632 7.12314 299.819 1.59322 299.293 1.10441C298.084 -0.0204668 295.878 -0.334787 294.263 0.387906Z" fill="#DEF745"/>
<path fill-rule="evenodd" clip-rule="evenodd" d="M420.263 0.387906C419.576 0.695629 418.808 1.20754 418.557 1.52598C418.306 1.84443 416.202 6.21937 413.881 11.2481C407.675 24.6934 407.103 25.8179 406.218 26.2869C405.774 26.522 400.04 27.5347 393.475 28.5375C386.91 29.5398 381.015 30.5719 380.375 30.831C378.944 31.4093 378 33.1211 378 35.137C378 36.7981 377.772 36.537 391.219 50.2162C396.663 55.7544 397.154 56.3781 397.154 57.7628C397.154 58.5932 396.2 64.9267 395.035 71.8372L392.916 84.4014L393.704 85.7392C394.682 87.3978 396.143 88.1935 397.783 87.96C398.472 87.8619 404 85.0462 410.066 81.7029C417.386 77.6683 421.516 75.6227 422.345 75.621C423.184 75.619 427.22 77.6266 434.628 81.7297C447.141 88.6601 447.946 88.9108 450.077 86.5472C451.69 84.7587 451.663 84.1123 449.41 70.7853C447.398 58.884 447.276 57.604 448.02 56.2176C448.286 55.7222 452.455 51.2681 457.284 46.3194C462.114 41.3711 466.325 36.7952 466.642 36.1517C467.293 34.8289 467.051 33.3695 465.961 32.0354C465.305 31.2331 463.752 30.9036 452.258 29.1253C445.127 28.0227 438.928 26.8937 438.48 26.6169C437.354 25.9206 437.464 26.1301 431.545 13.3927C428.632 7.12314 425.819 1.59322 425.293 1.10441C424.084 -0.0204668 421.878 -0.334787 420.263 0.387906Z" fill="#DEF745"/>
</svg>
